<svg width="85" height="42" fill="none" xmlns="http://www.w3.org/2000/svg"><path d="M13.1462 13.1028h-.0029c-2.398 0-4.34203 1.7276-4.34203 3.8587v.0025c0 2.1311 1.94403 3.8587 4.34203 3.8587h.0029c2.398 0 4.342-1.7276 4.342-3.8587v-.0025c0-2.1311-1.944-3.8587-4.342-3.8587ZM45.195 11.8693c-.0068-2.96001-1.3327-5.79707-3.6876-7.89035-2.3549-2.09327-5.547-3.272278-8.8777-3.278999-3.3317.005377-6.5252 1.183789-8.8813 3.277209-2.3562 2.09342-3.6829 4.93125-3.6897 7.89214v16.3228s25.1335-2.4877 25.1363-16.3203v-.0025ZM0 33.5495c.00604098 2.0596.929149 4.0333 2.56761 5.4899 1.63846 1.4566 3.85907 2.2776 6.17657 2.2837 2.31702-.0061 4.53722-.8268 6.17552-2.2828 1.6384-1.456 2.5619-3.4291 2.5687-5.4883V22.1943S0 23.9266 0 33.5495Zm8.74418 2.0349c-.45288 0-.89559-.1193-1.27214-.3429-.37656-.2236-.67005-.5414-.84336-.9133-.17331-.3718-.21866-.781-.1303-1.1757.08835-.3948.30643-.7574.62667-1.042.32023-.2846.72823-.4784 1.17241-.5569.44418-.0785.90458-.0382 1.32299.1158.41845.154.77605.4149 1.02765.7495.2516.3346.3859.7281.3859 1.1306.0011.2678-.0573.5333-.1718.7811-.1146.2477-.2831.473-.4958.6627-.2128.1898-.46559.3404-.74396.4431-.27837.1028-.57683.1557-.87826.1557v-.0077ZM24.7302 31.9413v4.2656h-.8789v-4.2656h.8789Zm1.6992 1.8222v.6856h-1.9395v-.6856h1.9395Zm.2051-1.8222v.6885h-2.1446v-.6885h2.1446Zm4.0136 2.0332v.2021c0 .3243-.0439.6153-.1318.8731-.0879.2578-.2119.4775-.3721.6592-.1601.1796-.3515.3173-.5742.413-.2207.0958-.4658.1436-.7353.1436-.2676 0-.5127-.0478-.7354-.1436-.2207-.0957-.4121-.2334-.5742-.413-.1621-.1817-.2881-.4014-.3779-.6592-.0879-.2578-.1319-.5488-.1319-.8731v-.2021c0-.3262.044-.6172.1319-.8731.0878-.2578.2119-.4775.372-.6591.1621-.1817.3535-.3204.5742-.4161.2227-.0957.4678-.1435.7354-.1435.2695 0 .5146.0478.7353.1435.2227.0957.4141.2344.5743.4161.1621.1816.2871.4013.375.6591.0898.2559.1347.5469.1347.8731Zm-.8877.2021v-.208c0-.2265-.0205-.4258-.0615-.5976-.041-.1719-.1015-.3164-.1816-.4336-.0801-.1172-.1778-.2051-.293-.2637-.1152-.0605-.2471-.0908-.3955-.0908-.1484 0-.2803.0303-.3955.0908-.1133.0586-.21.1465-.2901.2637-.0781.1172-.1376.2617-.1787.4336-.041.1718-.0615.3711-.0615.5976v.208c0 .2246.0205.4239.0615.5977.0411.1719.1016.3174.1817.4365.0801.1172.1777.2061.2929.2666.1153.0606.2471.0908.3956.0908.1484 0 .2802-.0302.3955-.0908.1152-.0605.2119-.1494.29-.2666.0781-.1191.1377-.2646.1787-.4365.041-.1738.0615-.3731.0615-.5977Zm3.7412.9141c0-.0762-.0117-.1445-.0351-.2051-.0215-.0625-.0625-.1191-.1231-.1699-.0605-.0527-.1455-.1045-.2548-.1553-.1094-.0508-.251-.1035-.4248-.1582-.1934-.0625-.377-.1328-.5508-.2109-.1719-.0781-.3242-.169-.4571-.2725-.1308-.1054-.2343-.2275-.3105-.3662-.0742-.1387-.1113-.2998-.1113-.4834 0-.1777.039-.3389.1172-.4834.0781-.1465.1875-.2715.3281-.375.1406-.1055.3066-.1865.498-.2431.1934-.0567.4053-.085.6358-.085.3144 0 .5888.0566.8232.1699.2344.1133.416.2686.5449.4658.1309.1973.1963.4229.1963.6768h-.873c0-.125-.0264-.2344-.0791-.3281-.0508-.0957-.1289-.1709-.2344-.2256-.1035-.0547-.2344-.0821-.3926-.0821-.1523 0-.2793.0235-.3808.0704-.1016.0449-.1778.1064-.2286.1845-.0507.0762-.0761.1621-.0761.2578 0 .0723.0176.1377.0527.1963.0371.0586.0918.1133.1641.1641.0722.0508.1611.0986.2666.1435.1054.045.2275.0889.3662.1319.2324.0703.4365.1494.6123.2373.1777.0879.3262.1865.4453.2959.1191.1094.209.2334.2695.3721.0606.1386.0909.2959.0909.4716 0 .1856-.0362.3516-.1084.4981-.0723.1465-.1768.2705-.3135.3721-.1367.1015-.2998.1787-.4893.2314-.1894.0527-.4013.0791-.6357.0791-.211 0-.419-.0273-.624-.082-.2051-.0567-.3916-.1416-.5596-.2549-.166-.1133-.2988-.2578-.3985-.4336-.0996-.1758-.1494-.3838-.1494-.624h.8819c0 .1328.0205.2451.0615.3369.041.0918.0986.166.1728.2226.0762.0567.1661.0977.2696.1231.1054.0254.2207.0381.3457.0381.1523 0 .2773-.0215.375-.0645.0996-.0429.1728-.1025.2197-.1787.0488-.0762.0732-.1621.0732-.2578Zm3.3838-3.1494v4.2656h-.8759v-4.2656h.8759Zm1.3125 0v.6885h-3.4804v-.6885h3.4804Zm3.3633 3.5801v.6855h-2.2705v-.6855h2.2705Zm-1.9834-3.5801v4.2656h-.8789v-4.2656h.8789Zm1.6875 1.7373v.668h-1.9746v-.668h1.9746Zm.293-1.7373v.6885h-2.2676v-.6885h2.2676Zm.5156 0h1.5908c.3262 0 .6065.0488.8409.1465.2363.0976.4179.2422.5449.4336.1269.1914.1904.4267.1904.706 0 .2285-.0391.4248-.1172.5889-.0762.1621-.1846.2978-.3252.4072-.1386.1074-.3017.1934-.4892.2578l-.2784.1465h-1.3828l-.0058-.6855h1.0283c.1543 0 .2822-.0274.3838-.0821.1015-.0547.1777-.1308.2285-.2285.0527-.0976.0791-.2109.0791-.3398 0-.1367-.0254-.2549-.0762-.3545-.0508-.0996-.1279-.1758-.2314-.2285-.1035-.0528-.2334-.0791-.3897-.0791h-.7119v3.5771h-.8789v-4.2656Zm2.3848 4.2656-.9727-1.9014.9287-.0058.9844 1.8662v.041h-.9404Zm4.6142-1.5205H47.986v-.6855h1.0869c.168 0 .3047-.0274.4102-.0821.1055-.0566.1826-.1347.2314-.2344.0489-.0996.0733-.2119.0733-.3369 0-.1269-.0244-.2451-.0733-.3545-.0488-.1093-.1259-.1972-.2314-.2636-.1055-.0664-.2422-.0996-.4102-.0996h-.7822v3.5771h-.8789v-4.2656h1.6611c.334 0 .6202.0605.8584.1816.2403.1192.4239.2842.5508.4951.127.211.1904.4522.1904.7237 0 .2754-.0634.5136-.1904.7148-.1269.2012-.3105.3565-.5508.4658-.2382.1094-.5244.1641-.8584.1641Zm5.0684.835v.6855h-2.2705v-.6855h2.2705Zm-1.9834-3.5801v4.2656h-.8789v-4.2656h.8789Zm1.6875 1.7373v.668h-1.9746v-.668h1.9746Zm.293-1.7373v.6885h-2.2676v-.6885h2.2676Zm2.4814 0v4.2656h-.876v-4.2656h.876Zm1.3125 0v.6885h-3.4805v-.6885h3.4805Zm3.3633 3.5801v.6855h-2.2705v-.6855h2.2705Zm-1.9834-3.5801v4.2656h-.8789v-4.2656h.8789Zm1.6875 1.7373v.668h-1.9746v-.668h1.9746Zm.293-1.7373v.6885h-2.2676v-.6885h2.2676Zm.5156 0h1.5908c.3262 0 .6065.0488.8408.1465.2364.0976.418.2422.545.4336.1269.1914.1904.4267.1904.706 0 .2285-.0391.4248-.1172.5889-.0762.1621-.1846.2978-.3252.4072-.1387.1074-.3018.1934-.4893.2578l-.2783.1465h-1.3828l-.0059-.6855h1.0284c.1543 0 .2822-.0274.3838-.0821.1015-.0547.1777-.1308.2285-.2285.0527-.0976.0791-.2109.0791-.3398 0-.1367-.0254-.2549-.0762-.3545-.0508-.0996-.1279-.1758-.2314-.2285-.1036-.0528-.2334-.0791-.3897-.0791h-.7119v3.5771h-.8789v-4.2656Zm2.3848 4.2656-.9727-1.9014.9287-.0058.9844 1.8662v.041h-.9404Zm3.6796-1.1162c0-.0762-.0117-.1445-.0351-.2051-.0215-.0625-.0625-.1191-.1231-.1699-.0605-.0527-.1455-.1045-.2548-.1553-.1094-.0508-.251-.1035-.4248-.1582-.1934-.0625-.377-.1328-.5508-.2109-.1719-.0781-.3242-.169-.4571-.2725-.1308-.1054-.2343-.2275-.3105-.3662-.0742-.1387-.1113-.2998-.1113-.4834 0-.1777.039-.3389.1172-.4834.0781-.1465.1875-.2715.3281-.375.1406-.1055.3066-.1865.498-.2431.1934-.0567.4053-.085.6358-.085.3144 0 .5888.0566.8232.1699.2344.1133.416.2686.5449.4658.1309.1973.1963.4229.1963.6768h-.873c0-.125-.0264-.2344-.0791-.3281-.0508-.0957-.1289-.1709-.2344-.2256-.1035-.0547-.2344-.0821-.3926-.0821-.1523 0-.2793.0235-.3808.0704-.1016.0449-.1778.1064-.2286.1845-.0507.0762-.0761.1621-.0761.2578 0 .0723.0175.1377.0527.1963.0371.0586.0918.1133.1641.1641.0722.0508.1611.0986.2666.1435.1054.045.2275.0889.3662.1319.2324.0703.4365.1494.6123.2373.1777.0879.3262.1865.4453.2959.1191.1094.209.2334.2695.3721.0606.1386.0908.2959.0908.4716 0 .1856-.0361.3516-.1084.4981-.0722.1465-.1767.2705-.3134.3721-.1367.1015-.2998.1787-.4893.2314-.1894.0527-.4014.0791-.6357.0791-.211 0-.419-.0273-.6241-.082-.205-.0567-.3916-.1416-.5595-.2549-.166-.1133-.2988-.2578-.3985-.4336-.0996-.1758-.1494-.3838-.1494-.624h.8819c0 .1328.0205.2451.0615.3369.041.0918.0986.166.1728.2226.0762.0567.1661.0977.2696.1231.1054.0254.2207.0381.3457.0381.1523 0 .2773-.0215.375-.0645.0996-.0429.1728-.1025.2197-.1787.0488-.0762.0732-.1621.0732-.2578Z" fill="#2196F3"/></svg>