<svg aria-hidden="true" style="position: absolute; width: 0; height: 0; overflow: hidden;" version="1.1" xmlns="http://www.w3.org/2000/svg" xmlns:xlink="http://www.w3.org/1999/xlink">
<defs>
<symbol id="antenna" viewBox="0 0 32 32">
<path fill="#212121" style="fill: var(--color1, #212121)" d="M30.78 22.103l-8.445-8.507 0.937-4.617c0.242 0.094 0.499 0.144 0.759 0.146h0.006c1.193 0.014 2.171-0.941 2.185-2.134s-0.941-2.171-2.134-2.185c-1.193-0.014-2.171 0.941-2.185 2.134-0.003 0.255 0.039 0.509 0.125 0.749l-4.961 0.605-8.092-8.135c-0.099-0.101-0.235-0.159-0.377-0.16-0.14 0.001-0.274 0.056-0.373 0.155l-1.513 1.504c-0.208 0.208-0.208 0.546 0 0.754l0.814 0.826c-3.154 5.799-2.129 12.981 2.52 17.667 0.043 0.041 0.092 0.074 0.146 0.098-0.034 0.181-0.051 0.364-0.052 0.547v6.188h-6.401c-1.472 0.002-2.666 1.195-2.667 2.667v1.067c0 0.295 0.239 0.533 0.533 0.533h24.539c0.295 0 0.533-0.239 0.533-0.533v-1.067c-0.002-1.472-1.195-2.666-2.667-2.667h-6.401v-2.742c1.003 0.21 2.025 0.318 3.049 0.32 2.459-0.003 4.878-0.616 7.042-1.784l0.818 0.823c0.099 0.101 0.235 0.159 0.377 0.16 0.14-0.001 0.274-0.056 0.373-0.155l1.513-1.504c0.208-0.208 0.208-0.546 0-0.754zM23.285 6.234c0.418-0.416 1.093-0.414 1.509 0.004s0.414 1.093-0.004 1.509c-0.2 0.199-0.471 0.31-0.753 0.31h-0.003c-0.589-0.003-1.064-0.483-1.061-1.072 0.002-0.282 0.115-0.552 0.315-0.751h-0.002zM22.029 9.74l-0.599 2.946-1.176-1.183 1.774-1.764zM21.423 8.838l-1.92 1.909-1.486-1.494 3.406-0.416zM24.009 28.806c0.884 0 1.6 0.716 1.6 1.6v0.533h-23.472v-0.533c0-0.884 0.716-1.6 1.6-1.6h20.271zM16.541 26.673v1.067h-5.335v-1.067h5.335zM11.207 25.606v-4.054c0-1.294 1.197-2.347 2.667-2.347s2.667 1.053 2.667 2.347v4.054h-5.335zM17.608 23.909v-2.358c0-1.883-1.675-3.414-3.734-3.414-1.331-0.020-2.576 0.657-3.282 1.787-4.059-4.275-4.973-10.648-2.279-15.891l18.606 18.713c-2.873 1.462-6.167 1.873-9.311 1.163zM28.9 23.225l-21.062-21.186 0.755-0.752 7.937 7.982c0.004 0 0.006 0.007 0.010 0.010l13.118 13.194-0.757 0.752z"></path>
<path fill="#2196f3" style="fill: var(--color2, #2196f3)" d="M13.879 20.271h-0.005c-0.884-0.001-1.601 0.714-1.603 1.598s0.714 1.601 1.598 1.603h0.005c0.884 0.001 1.601-0.714 1.603-1.598s-0.714-1.601-1.598-1.603zM14.252 22.25c-0.1 0.1-0.237 0.156-0.378 0.155-0.295-0.002-0.532-0.242-0.531-0.536 0.001-0.141 0.057-0.276 0.157-0.375s0.233-0.154 0.373-0.155c0.295 0.002 0.532 0.242 0.531 0.536-0.001 0.141-0.057 0.276-0.157 0.375h0.005z"></path>
</symbol>
<symbol id="astronaut" viewBox="0 0 32 32">
<path fill="#2196f3" style="fill: var(--color2, #2196f3)" d="M31.981 4.525c-0.063-0.193-0.229-0.333-0.43-0.363l-1.911-0.278-0.855-1.732c-0.179-0.365-0.777-0.365-0.956 0l-0.855 1.732-1.911 0.278c-0.201 0.029-0.368 0.17-0.431 0.363-0.062 0.193-0.011 0.405 0.135 0.547l1.383 1.348-0.326 1.903c-0.034 0.2 0.048 0.402 0.212 0.522 0.166 0.121 0.382 0.135 0.562 0.040l1.709-0.899 1.709 0.899c0.078 0.041 0.164 0.061 0.249 0.061 0.11 0 0.221-0.034 0.314-0.102 0.164-0.119 0.246-0.322 0.212-0.522l-0.326-1.903 1.383-1.348c0.145-0.142 0.197-0.354 0.135-0.547zM29.518 5.852c-0.125 0.122-0.183 0.299-0.153 0.472l0.191 1.114-1.001-0.526c-0.078-0.041-0.163-0.061-0.249-0.061s-0.17 0.020-0.249 0.061l-1.001 0.526 0.191-1.114c0.030-0.173-0.028-0.349-0.153-0.472l-0.81-0.79 1.119-0.163c0.174-0.025 0.324-0.134 0.402-0.292l0.5-1.014 0.5 1.014c0.078 0.157 0.228 0.267 0.402 0.292l1.119 0.163-0.809 0.79zM26.139 20.527h-1.067v1.067h1.067v-1.067zM26.139 22.661h-1.067v1.067h1.067v-1.067zM27.206 21.594h-1.067v1.067h1.067v-1.067zM25.072 21.594h-1.067v1.067h1.067v-1.067zM22.405 26.395h-1.067v1.067h1.067v-1.067zM22.405 28.529h-1.067v1.067h1.067v-1.067zM23.472 27.462h-1.067v1.067h1.067v-1.067zM21.338 27.462h-1.067v1.067h1.067v-1.067zM16.004 24.261h-1.067v1.067h1.067v-1.067zM16.004 26.395h-1.067v1.067h1.067v-1.067zM17.070 25.328h-1.067v1.067h1.067v-1.067zM14.937 25.328h-1.067v1.067h1.067v-1.067zM5.868 6.123h-1.067v1.067h1.067v-1.067zM5.868 8.257h-1.067v1.067h1.067v-1.067z"></path>
<path fill="#2196f3" style="fill: var(--color2, #2196f3)" d="M6.935 7.19h-1.067v1.067h1.067v-1.067zM4.801 7.19h-1.067v1.067h1.067v-1.067z"></path>
<path fill="#212121" style="fill: var(--color1, #212121)" d="M24.72 14.163c-0.287-0.388-0.709-0.637-1.189-0.705-0.481-0.068-0.956 0.058-1.34 0.352l-1.253 0.96-1.898 1.417-1.358-0.541c2.422-1.087 4.115-3.509 4.115-6.322 0-3.824-3.123-6.935-6.963-6.935s-6.963 3.111-6.963 6.935c0 1.386 0.414 2.675 1.12 3.759l-2.769-0.024c-0.009 0-0.015 0.004-0.023 0.005-0.053 0.002-0.105 0.013-0.155 0.031-0.013 0.005-0.026 0.008-0.038 0.013-0.006 0.003-0.013 0.003-0.019 0.006l-3.234 1.597c-0.001 0-0.001 0-0.001 0.001l-1.894 0.911c-0.021 0.009-0.042 0.021-0.063 0.035-0.755 0.503-1.012 1.489-0.599 2.296 0.22 0.429 0.595 0.745 1.056 0.889 0.178 0.055 0.359 0.083 0.539 0.083 0.29 0 0.577-0.071 0.84-0.211l1.388-0.738 2.265-1.169 1.357-0.008-5.443 5.417c-0.001 0.001-0.001 0.001-0.002 0.001l-1.339 1.334c-0.316 0.315-0.49 0.732-0.49 1.178s0.174 0.864 0.49 1.179c0.325 0.323 0.752 0.485 1.179 0.485s0.855-0.162 1.181-0.485l1.314-1.309 1.741-1.3 0.901 0.897-1.762 1.755c-0 0.001-0.001 0.001-0.002 0.001l-1.339 1.334c-0.316 0.315-0.49 0.732-0.49 1.178s0.174 0.864 0.49 1.179c0.325 0.323 0.753 0.485 1.18 0.485s0.855-0.162 1.181-0.485l3.482-3.467c0.001-0.001 0.001-0.001 0.001-0.002l1.010-1-0.004-0.004c0.006-0.006 0.015-0.009 0.022-0.015l5.167-5.659 3.472 0.494c0.025 0.004 0.050 0.005 0.075 0.005 0.065 0 0.127-0.015 0.187-0.038 0.018-0.006 0.033-0.015 0.050-0.023 0.019-0.010 0.039-0.015 0.058-0.027l3.214-2.134c0.012-0.008 0.018-0.021 0.029-0.029 0.013-0.010 0.029-0.014 0.041-0.026l1.272-1.191c0.662-0.62 0.753-1.636 0.212-2.362zM2.131 17.774c-0.173 0.093-0.37 0.111-0.558 0.052-0.187-0.058-0.338-0.186-0.427-0.358-0.161-0.314-0.068-0.696 0.214-0.902l1.314-0.632 0.449 1.313-0.992 0.528zM5.629 15.946l-1.549 0.8-0.439-1.284 2.027-1.001-0.040 1.484zM20.732 9.324c0 0.919-0.219 1.785-0.599 2.56l-4.182-1.9c-0.044-0.573-0.341-1.075-0.788-1.388l1.464-4.861c2.378 0.756 4.105 2.975 4.105 5.589zM8.94 9.324c0-3.235 2.645-5.868 5.896-5.868 0.253 0 0.5 0.021 0.745 0.052l-1.432 4.755c-0.019-0.001-0.037-0.006-0.057-0.006-1.033 0-1.873 0.838-1.873 1.867s0.84 1.867 1.873 1.867c0.695 0 1.295-0.384 1.618-0.945l3.863 1.755c-1.075 1.447-2.795 2.39-4.738 2.39-3.251 0-5.896-2.633-5.896-5.868zM14.898 10.124c0 0.441-0.362 0.8-0.806 0.8s-0.806-0.359-0.806-0.8c0-0.441 0.362-0.8 0.806-0.8s0.806 0.359 0.806 0.8zM2.465 25.152c-0.236 0.234-0.619 0.234-0.855 0.001-0.114-0.114-0.176-0.264-0.176-0.423s0.062-0.309 0.176-0.421l0.962-0.959 0.851 0.848-0.959 0.955zM5.68 28.886c-0.236 0.234-0.619 0.235-0.855 0.001-0.114-0.114-0.176-0.263-0.176-0.423s0.062-0.309 0.176-0.421l0.963-0.959 0.852 0.848-0.96 0.955zM9.162 25.416c-0.001 0-0.001 0-0.002 0.001l-1.765 1.76-0.852-0.848 1.764-1.756c0.001-0.001 0.001-0.001 0.002-0.001 0.040-0.040 0.065-0.088 0.090-0.135 0.007-0.014 0.020-0.026 0.026-0.040 0.017-0.041 0.019-0.085 0.026-0.129 0.003-0.025 0.014-0.047 0.014-0.073 0-0.036-0.013-0.070-0.020-0.106-0.006-0.032-0.006-0.065-0.019-0.095-0.020-0.050-0.055-0.094-0.091-0.138-0.010-0.012-0.014-0.027-0.025-0.038h-0.001c-0.001-0-0.001-0.002-0.001-0.002l-1.607-1.6c-0.017-0.017-0.039-0.024-0.058-0.038-0.028-0.022-0.055-0.042-0.087-0.058-0.030-0.015-0.061-0.024-0.093-0.033-0.034-0.010-0.067-0.017-0.103-0.020-0.033-0.002-0.063 0.001-0.095 0.005-0.036 0.004-0.069 0.009-0.104 0.020-0.034 0.011-0.063 0.027-0.094 0.045-0.020 0.011-0.042 0.015-0.061 0.029l-1.774 1.324-0.901-0.897 2.4-2.387 4.362 4.29-0.928 0.919zM15.983 18.398c-0.015-0.002-0.030 0.004-0.045 0.003-0.039-0.002-0.076 0.001-0.115 0.007-0.030 0.005-0.059 0.011-0.088 0.021-0.034 0.012-0.065 0.028-0.097 0.047-0.030 0.018-0.057 0.037-0.083 0.061-0.013 0.011-0.028 0.017-0.040 0.029l-4.699 5.147-4.329-4.258 2.834-2.819c0.209-0.208 0.21-0.546 0.002-0.755-0.105-0.105-0.243-0.157-0.381-0.156v-0.001l-2.219 0.013 0.028-1.608 3.105 0.027c1.265 1.294 3.030 2.101 4.982 2.101 0.437 0 0.864-0.045 1.28-0.123 0.040 0.032 0.079 0.065 0.13 0.085l2.41 0.96 0.331 1.644-3.003-0.427zM20.025 18.576l-0.313-1.558 1.447-1.080 0.947 1.257-2.081 1.382zM23.779 15.745l-0.838 0.785-0.931-1.237 0.832-0.637c0.155-0.119 0.351-0.168 0.543-0.143 0.193 0.027 0.364 0.128 0.48 0.284 0.217 0.292 0.18 0.699-0.085 0.947z"></path>
<path fill="#212121" style="fill: var(--color1, #212121)" d="M13.605 18.548l-2.143-2.134c-0.207-0.207-0.545-0.207-0.753 0l-2.143 2.134c-0.1 0.101-0.157 0.236-0.157 0.378s0.056 0.278 0.157 0.378l2.143 2.134c0.104 0.103 0.241 0.155 0.377 0.155s0.273-0.052 0.376-0.155l2.143-2.134c0.1-0.1 0.157-0.236 0.157-0.378s-0.057-0.278-0.157-0.378zM11.086 20.308l-1.387-1.381 1.387-1.381 1.387 1.381-1.387 1.381zM17.168 5.072l-0.258 1.036c0.071 0.018 1.738 0.452 1.738 2.149h1.067c-0-2.018-1.666-2.966-2.547-3.185zM19.715 9.324h-1.067v1.067h1.067v-1.067z"></path>
</symbol>
<symbol id="clock" viewBox="0 0 32 32">
<path fill="#212121" style="fill: var(--color1, #212121)" d="M31.304 15.305c-0.002-8.454-6.857-15.306-15.311-15.305s-15.306 6.857-15.305 15.311c0.001 6.659 4.308 12.554 10.652 14.579 0.061 0.019 0.124 0.029 0.187 0.029 0.121-0 0.239-0.032 0.343-0.094 0.135-0.080 0.236-0.207 0.283-0.357l3.866-12.253c1.057-0.005 1.909-0.867 1.904-1.923s-0.866-1.909-1.923-1.904c-0.284 0.001-0.565 0.067-0.82 0.191l-5.107-5.108c-0.254-0.245-0.657-0.238-0.902 0.016-0.239 0.247-0.239 0.639 0 0.886l5.104 5.11c-0.392 0.8-0.168 1.765 0.537 2.31l-3.683 11.675c-7.279-2.681-11.007-10.756-8.325-18.036s10.756-11.007 18.036-8.325 11.007 10.757 8.325 18.036c-1.31 3.556-4.002 6.433-7.464 7.975l-0.398-1.875c-0.073-0.345-0.411-0.565-0.756-0.492-0.109 0.023-0.209 0.074-0.293 0.148l-3.838 3.426c-0.263 0.234-0.287 0.637-0.052 0.901 0.076 0.085 0.174 0.149 0.283 0.184l4.9 1.564c0.335 0.108 0.695-0.077 0.802-0.412 0.034-0.106 0.040-0.219 0.017-0.328l-0.391-1.84c5.666-2.389 9.344-7.944 9.331-14.092zM15.996 14.667c0.352 0 0.638 0.286 0.638 0.638s-0.286 0.638-0.638 0.638c-0.352 0-0.638-0.285-0.638-0.638s0.285-0.638 0.638-0.638zM18.097 29.534l2.185-1.949 0.603 2.841-2.788-0.892z"></path>
<path fill="#2196f3" style="fill: var(--color2, #2196f3)" d="M15.358 3.186v1.276c0 0.352 0.285 0.638 0.638 0.638s0.638-0.285 0.638-0.638v-1.276c0-0.352-0.286-0.638-0.638-0.638s-0.638 0.286-0.638 0.638zM3.877 14.667c-0.352 0-0.638 0.286-0.638 0.638s0.285 0.638 0.638 0.638h1.276c0.352 0 0.638-0.286 0.638-0.638s-0.285-0.638-0.638-0.638h-1.276zM28.114 15.943c0.352 0 0.638-0.286 0.638-0.638s-0.285-0.638-0.638-0.638h-1.276c-0.352 0-0.638 0.286-0.638 0.638s0.286 0.638 0.638 0.638h1.276z"></path>
</symbol>
<symbol id="diagram" viewBox="0 0 32 32">
<path fill="#2196f3" style="fill: var(--color2, #2196f3)" d="M14.929 14.968h1.066v4.799h-1.066v-4.799zM19.194 17.101h1.066v2.666h-1.066v-2.666zM10.663 18.7h1.066v1.066h-1.066v-1.066zM7.464 18.167h1.066v1.599h-1.066v-1.599z"></path>
<path fill="#212121" style="fill: var(--color1, #212121)" d="M1.6 28.297h25.592c0.883 0 1.599-0.716 1.599-1.6v-2.133c0-0.883-0.716-1.6-1.599-1.6h-0.533v-13.296l3.029-2.869c0.703 0.346 1.554 0.136 2.014-0.499s0.396-1.509-0.153-2.069-1.42-0.644-2.065-0.198c-0.645 0.446-0.874 1.292-0.543 2.003l-2.282 2.163v-1.23c0-0.883-0.716-1.6-1.6-1.6h-21.327c-0.883 0-1.6 0.716-1.6 1.6v15.995h-0.533c-0.883 0-1.6 0.716-1.6 1.6v2.133c0 0.883 0.716 1.6 1.6 1.6zM30.391 4.838c0.294 0 0.533 0.239 0.533 0.533s-0.239 0.533-0.533 0.533c-0.294 0-0.533-0.239-0.533-0.533s0.239-0.533 0.533-0.533zM3.199 6.97c0-0.294 0.239-0.533 0.533-0.533h21.327c0.294 0 0.533 0.239 0.533 0.533v2.239l-1.066 1.013v-2.186c0-0.294-0.239-0.533-0.533-0.533h-19.194c-0.294 0-0.533 0.239-0.533 0.533v13.329c0 0.294 0.239 0.533 0.533 0.533h19.194c0.294 0 0.533-0.239 0.533-0.533v-9.677l1.066-1.010v12.286h-22.393v-15.995zM7.998 13.902c-0.721-0.002-1.355 0.479-1.547 1.174s0.105 1.433 0.726 1.801c0.62 0.368 1.41 0.276 1.929-0.226l1.853 0.93c0.215 0.108 0.476 0.057 0.637-0.123l3.94-4.432 3.873 2.902c0.208 0.156 0.498 0.139 0.686-0.039l3.366-3.188v8.133h-18.128v-12.263h18.128v2.661l-3.772 3.572-3.905-2.928c-0.222-0.166-0.534-0.135-0.718 0.072l-3.994 4.494-1.493-0.747c0.011-0.064 0.018-0.129 0.020-0.193 0-0.883-0.716-1.6-1.6-1.6zM8.531 15.501c0 0.294-0.239 0.533-0.533 0.533s-0.533-0.239-0.533-0.533c0-0.294 0.239-0.533 0.533-0.533s0.533 0.239 0.533 0.533zM11.73 24.032h5.332v0.533c0 0.294-0.239 0.533-0.533 0.533h-4.265c-0.294 0-0.533-0.239-0.533-0.533v-0.533zM1.066 24.565c0-0.294 0.239-0.533 0.533-0.533h9.064v0.533c0 0.883 0.716 1.6 1.6 1.6h4.265c0.883 0 1.6-0.716 1.6-1.6v-0.533h9.064c0.294 0 0.533 0.239 0.533 0.533v2.133c0 0.294-0.239 0.533-0.533 0.533h-25.592c-0.294 0-0.533-0.239-0.533-0.533v-2.133z"></path>
</symbol>
<symbol id="envelope" viewBox="0 0 43 32">
<path  d="M38.704-0.016h-34.701c-2.208 0-4.004 1.796-4.004 4.004v24.023c0 2.208 1.796 4.004 4.004 4.004h34.701c2.208 0 4.004-1.796 4.004-4.004v-24.023c0-2.208-1.796-4.004-4.004-4.004zM38.704 2.654c0.181 0 0.354 0.038 0.511 0.103l-17.862 15.481-17.862-15.481c0.158-0.066 0.33-0.103 0.512-0.103h34.701zM38.704 29.346h-34.701c-0.736 0-1.335-0.598-1.335-1.335v-22.435l17.81 15.436c0.252 0.218 0.563 0.326 0.875 0.326s0.623-0.108 0.875-0.326l17.81-15.436v22.435c0 0.736-0.598 1.335-1.335 1.335z"></path>
</symbol>
<symbol id="facebook" viewBox="0 0 32 32">
<path d="M21.338 5.315h2.923v-5.090c-0.504-0.069-2.238-0.225-4.258-0.225-4.214 0-7.1 2.65-7.1 7.522v4.483h-4.65v5.69h4.65v14.318h5.701v-14.316h4.462l0.708-5.69h-5.171v-3.92c0.001-1.645 0.444-2.77 2.736-2.77z"></path>
</symbol>
<symbol id="instagram" viewBox="0 0 32 32">
<path d="M31.981 9.412c-0.075-1.701-0.35-2.87-0.744-3.884-0.407-1.076-1.032-2.039-1.851-2.839-0.8-0.813-1.77-1.445-2.833-1.845-1.019-0.394-2.182-0.669-3.883-0.744-1.714-0.081-2.258-0.1-6.604-0.1s-4.89 0.019-6.598 0.094c-1.701 0.075-2.87 0.35-3.883 0.744-1.076 0.406-2.039 1.032-2.839 1.851-0.813 0.8-1.444 1.77-1.845 2.833-0.394 1.019-0.669 2.182-0.744 3.883-0.081 1.714-0.1 2.258-0.1 6.604s0.019 4.89 0.094 6.598c0.075 1.701 0.35 2.87 0.744 3.884 0.406 1.075 1.038 2.039 1.851 2.839 0.801 0.813 1.77 1.445 2.833 1.845 1.019 0.394 2.182 0.669 3.884 0.744 1.707 0.075 2.251 0.094 6.598 0.094s4.89-0.019 6.598-0.094c1.701-0.075 2.87-0.35 3.883-0.744 2.151-0.832 3.852-2.533 4.684-4.684 0.394-1.019 0.669-2.183 0.744-3.884 0.075-1.707 0.094-2.251 0.094-6.598s-0.006-4.89-0.081-6.598zM29.098 22.482c-0.069 1.564-0.331 2.408-0.55 2.97-0.538 1.395-1.645 2.501-3.039 3.039-0.563 0.219-1.413 0.481-2.97 0.55-1.689 0.075-2.195 0.094-6.466 0.094s-4.784-0.019-6.466-0.094c-1.563-0.069-2.408-0.331-2.97-0.55-0.694-0.256-1.326-0.663-1.838-1.195-0.532-0.519-0.938-1.144-1.195-1.838-0.219-0.563-0.481-1.413-0.55-2.97-0.075-1.689-0.094-2.195-0.094-6.467s0.019-4.784 0.094-6.466c0.069-1.563 0.331-2.408 0.55-2.97 0.256-0.694 0.663-1.326 1.201-1.839 0.519-0.532 1.144-0.938 1.838-1.194 0.563-0.219 1.413-0.481 2.97-0.55 1.688-0.075 2.195-0.094 6.466-0.094 4.278 0 4.784 0.019 6.466 0.094 1.564 0.069 2.408 0.332 2.971 0.55 0.694 0.256 1.326 0.663 1.838 1.194 0.531 0.519 0.938 1.144 1.195 1.839 0.219 0.563 0.481 1.413 0.55 2.97 0.075 1.688 0.094 2.195 0.094 6.466s-0.019 4.772-0.094 6.46z"></path>
<path  d="M16.066 7.786c-4.54 0-8.224 3.683-8.224 8.224s3.684 8.224 8.224 8.224c4.54 0 8.224-3.683 8.224-8.224s-3.683-8.224-8.224-8.224zM16.066 21.344c-2.945 0-5.334-2.389-5.334-5.334s2.389-5.334 5.334-5.334c2.945 0 5.334 2.389 5.334 5.334s-2.389 5.334-5.334 5.334zM26.534 7.461c0 1.060-0.86 1.92-1.92 1.92s-1.92-0.86-1.92-1.92c0-1.060 0.86-1.92 1.92-1.92s1.92 0.859 1.92 1.92z"></path>
</symbol>
<symbol id="linkedin" viewBox="0 0 32 32">
<path  d="M32.005 32.013v-0.001h0.008v-11.741c0-5.744-1.236-10.168-7.951-10.168-3.228 0-5.394 1.771-6.278 3.451h-0.093v-2.914h-6.367v21.372h6.629v-10.583c0-2.786 0.528-5.481 3.979-5.481 3.4 0 3.451 3.18 3.451 5.66v10.405h6.623zM0.528 10.64h6.637v21.372h-6.637v-21.372zM3.844 0c-2.122 0-3.844 1.722-3.844 3.844s1.722 3.88 3.844 3.88c2.122 0 3.844-1.758 3.844-3.88-0.001-2.122-1.723-3.844-3.844-3.844z"></path>
</symbol>
<symbol id="Logo-1" viewBox="0 0 57 32">
<path d="M26.731 3.163h-0.073c-0.112-0.007-0.224-0.010-0.336-0.012h-0.243c-0.212 0-0.428 0.005-0.642 0.016-0.016-0.001-0.032-0.001-0.049 0-1.944 0.11-3.849 0.596-5.609 1.431l-0.231 0.111v11.81l0.54-0.183c0.474-0.163 0.978-0.309 1.5-0.445 1.412-0.362 2.861-0.555 4.318-0.574v1.552c-0.193 0.001-0.381 0.007-0.568 0.016h-0.045c-1.121 0.061-2.234 0.232-3.322 0.51-1.378 0.345-2.708 0.863-3.958 1.542v-15.147c1.298-0.757 2.696-1.326 4.152-1.689 1.279-0.33 2.593-0.5 3.913-0.505h0.228c0.273 0.007 0.538 0.019 0.788 0.038 0.658 0.046 1.31 0.15 1.95 0.311v1.527c-0.621-0.145-1.253-0.24-1.889-0.285-0.013-0.001-0.026-0.002-0.039-0.003-0.132-0.011-0.263-0.022-0.386-0.022zM29.419 4.724c0.339 0.026 0.69 0.038 1.044 0.038 1.388-0.005 2.77-0.182 4.114-0.528 1.378-0.346 2.707-0.865 3.956-1.544v14.877c-1.299 0.757-2.697 1.325-4.153 1.689-1.279 0.329-2.593 0.498-3.913 0.503-1 0.008-1.997-0.11-2.969-0.35v-14.974c0.229 0.053 0.465 0.102 0.706 0.142 0.394 0.066 0.81 0.115 1.214 0.145zM36.991 4.84l-0.54 0.182c-0.497 0.167-0.997 0.316-1.501 0.449-1.465 0.377-2.971 0.57-4.484 0.575-0.352 0-0.676-0.010-0.989-0.030l-0.43-0.028v12.149l0.37 0.033c0.343 0.030 0.696 0.045 1.053 0.045 1.191-0.005 2.378-0.159 3.531-0.457 0.95-0.238 1.874-0.57 2.76-0.992l0.231-0.111v-11.814z"></path>
<path d="M19.063 24.114c-0.078-0.081-0.171-0.144-0.275-0.186s-0.215-0.061-0.326-0.057c-0.119-0.002-0.237 0.021-0.347 0.065-0.101 0.040-0.193 0.101-0.27 0.178s-0.136 0.17-0.174 0.271c-0.042 0.107-0.063 0.22-0.062 0.335v2.024c-0.005 0.143 0.022 0.284 0.080 0.415 0.048 0.104 0.117 0.196 0.202 0.271 0.081 0.068 0.176 0.117 0.278 0.144 0.098 0.028 0.2 0.042 0.302 0.042 0.113 0.001 0.224-0.023 0.327-0.071 0.101-0.044 0.193-0.108 0.27-0.187 0.075-0.079 0.135-0.171 0.177-0.271 0.043-0.102 0.065-0.212 0.065-0.323v-0.227h-0.529v0.18c0.002 0.062-0.009 0.123-0.031 0.18-0.017 0.043-0.043 0.082-0.077 0.114-0.033 0.026-0.070 0.046-0.111 0.058-0.036 0.012-0.073 0.018-0.111 0.019-0.047 0.006-0.095-0.002-0.139-0.021s-0.081-0.049-0.11-0.088c-0.050-0.081-0.074-0.176-0.070-0.271v-1.887c-0.003-0.105 0.019-0.208 0.065-0.302 0.027-0.043 0.066-0.077 0.112-0.098s0.097-0.030 0.147-0.024c0.046-0.002 0.091 0.008 0.132 0.028s0.077 0.049 0.104 0.086c0.059 0.078 0.090 0.173 0.088 0.271v0.175h0.524v-0.206c0.001-0.121-0.021-0.241-0.065-0.354-0.039-0.106-0.099-0.203-0.177-0.285zM22.205 24.091c-0.169-0.142-0.382-0.221-0.602-0.222-0.108 0-0.215 0.020-0.316 0.057-0.103 0.037-0.198 0.093-0.279 0.165-0.088 0.079-0.158 0.175-0.205 0.284-0.053 0.124-0.079 0.257-0.077 0.392v1.941c-0.004 0.137 0.023 0.272 0.077 0.397 0.048 0.104 0.118 0.197 0.205 0.271 0.081 0.075 0.176 0.133 0.279 0.171 0.101 0.037 0.208 0.056 0.316 0.057s0.215-0.020 0.316-0.057c0.105-0.038 0.202-0.096 0.286-0.171 0.084-0.076 0.152-0.168 0.2-0.271 0.054-0.125 0.081-0.261 0.077-0.397v-1.941c0.003-0.135-0.024-0.268-0.077-0.392-0.047-0.107-0.115-0.203-0.2-0.284zM21.958 26.708c0.004 0.052-0.003 0.104-0.021 0.152s-0.047 0.092-0.084 0.128c-0.070 0.059-0.158 0.091-0.249 0.091s-0.179-0.032-0.249-0.091c-0.037-0.036-0.066-0.080-0.084-0.128s-0.025-0.101-0.021-0.152v-1.941c-0.004-0.052 0.003-0.104 0.021-0.152s0.047-0.093 0.084-0.128c0.070-0.059 0.158-0.091 0.249-0.091s0.179 0.032 0.249 0.091c0.037 0.036 0.066 0.080 0.084 0.128s0.025 0.101 0.021 0.152v1.941zM26.333 27.575v-3.674h-0.509l-0.668 1.945h-0.009l-0.673-1.945h-0.503v3.675h0.525v-2.235h0.009l0.514 1.58h0.262l0.518-1.58h0.009v2.235h0.525zM29.315 24.158c-0.081-0.091-0.183-0.16-0.297-0.201-0.123-0.040-0.251-0.059-0.381-0.057h-0.78v3.675h0.524v-1.435h0.27c0.163 0.007 0.326-0.027 0.472-0.1 0.119-0.066 0.218-0.163 0.287-0.281 0.061-0.098 0.101-0.207 0.12-0.32 0.021-0.138 0.030-0.278 0.028-0.418 0.005-0.176-0.012-0.353-0.051-0.525-0.035-0.127-0.101-0.243-0.193-0.338zM29.045 25.278c-0.002 0.067-0.019 0.132-0.049 0.191-0.030 0.056-0.077 0.102-0.135 0.129-0.078 0.035-0.162 0.050-0.247 0.046h-0.239v-1.249h0.27c0.081-0.004 0.162 0.012 0.236 0.046 0.054 0.031 0.097 0.079 0.123 0.136 0.029 0.065 0.044 0.134 0.046 0.205v0.244c0 0.085 0.005 0.174 0 0.252h-0.005zM31.795 23.9h-0.429l-0.81 3.675h0.524l0.154-0.789h0.714l0.154 0.789h0.524l-0.83-3.675zM31.312 26.285l0.258-1.332h0.009l0.256 1.332h-0.524zM35.178 26.114h-0.009l-0.791-2.214h-0.503v3.675h0.524v-2.21h0.011l0.8 2.21h0.492v-3.675h-0.524v2.214zM38.378 23.9l-0.421 1.461h-0.011l-0.421-1.461h-0.555l0.719 2.121v1.553h0.524v-1.553l0.719-2.121h-0.555zM17.603 28.612h0.252v0.708h0.171v-0.708h0.251v-0.145h-0.675v0.145zM19.724 28.467l-0.331 0.853h0.182l0.070-0.194h0.34l0.073 0.194h0.186l-0.339-0.853h-0.182zM19.697 28.983l0.116-0.316 0.116 0.316h-0.232zM21.821 29.006h0.197v0.11c-0.058 0.046-0.129 0.071-0.202 0.072-0.034 0.002-0.069-0.004-0.1-0.019s-0.059-0.036-0.081-0.063c-0.045-0.065-0.068-0.143-0.063-0.222 0-0.19 0.082-0.285 0.246-0.285 0.043-0.004 0.086 0.007 0.121 0.032s0.061 0.062 0.072 0.104l0.169-0.033c-0.036-0.167-0.157-0.251-0.362-0.251-0.11-0.003-0.216 0.036-0.298 0.11-0.043 0.042-0.076 0.094-0.097 0.15s-0.030 0.117-0.025 0.178c-0.005 0.117 0.034 0.231 0.109 0.32 0.042 0.043 0.092 0.077 0.148 0.098s0.116 0.031 0.176 0.027c0.134 0.004 0.263-0.045 0.362-0.136v-0.336h-0.37v0.144zM23.962 28.467h-0.173v0.853h0.598v-0.145h-0.425v-0.708zM25.773 28.467h-0.173v0.853h0.173v-0.853zM27.544 29.037l-0.349-0.57h-0.167v0.853h0.161v-0.557l0.343 0.557h0.171v-0.853h-0.158v0.57zM29.144 28.945h0.425v-0.145h-0.425v-0.187h0.457v-0.145h-0.63v0.853h0.648v-0.145h-0.475v-0.231zM33.025 28.804h-0.336v-0.336h-0.171v0.853h0.171v-0.373h0.336v0.373h0.171v-0.853h-0.171v0.336zM34.635 28.945h0.426v-0.145h-0.426v-0.187h0.459v-0.145h-0.63v0.853h0.646v-0.145h-0.475v-0.231zM36.818 28.945c0.148-0.023 0.224-0.102 0.224-0.237 0.004-0.036-0.001-0.073-0.016-0.106s-0.038-0.062-0.068-0.083c-0.077-0.039-0.163-0.056-0.25-0.050h-0.362v0.853h0.171v-0.357h0.034c0.037-0.002 0.073 0.004 0.107 0.019 0.025 0.015 0.046 0.037 0.061 0.062l0.186 0.271h0.205l-0.104-0.167c-0.046-0.082-0.111-0.153-0.189-0.205zM36.645 28.827h-0.127v-0.214h0.135c0.059-0.005 0.118 0.002 0.174 0.020 0.012 0.011 0.022 0.025 0.029 0.040s0.009 0.032 0.009 0.049c-0.001 0.017-0.005 0.033-0.013 0.048s-0.019 0.027-0.032 0.037c-0.056 0.017-0.115 0.024-0.174 0.020zM38.464 28.945h0.425v-0.145h-0.425v-0.187h0.459v-0.145h-0.632v0.853h0.648v-0.145h-0.475v-0.231z"></path>
</symbol>
<symbol id="Logo-2" viewBox="0 0 57 32">
<path d="M19.419 26.189c0.008 0 0.017 0.002 0.025 0.005s0.015 0.007 0.020 0.013l0.116 0.111c-0.090 0.090-0.202 0.162-0.327 0.211-0.147 0.053-0.305 0.079-0.464 0.076-0.149 0.003-0.298-0.021-0.436-0.071-0.125-0.045-0.237-0.113-0.329-0.2-0.094-0.089-0.166-0.194-0.212-0.308-0.051-0.127-0.076-0.261-0.074-0.396-0.002-0.135 0.025-0.27 0.080-0.397 0.051-0.115 0.127-0.22 0.225-0.308 0.099-0.087 0.218-0.155 0.349-0.201 0.143-0.048 0.296-0.072 0.449-0.071 0.143-0.003 0.285 0.019 0.417 0.064 0.115 0.043 0.221 0.104 0.313 0.178l-0.097 0.119c-0.007 0.008-0.015 0.016-0.025 0.021-0.012 0.007-0.025 0.010-0.039 0.009-0.015-0.001-0.030-0.005-0.042-0.013l-0.052-0.032-0.073-0.040c-0.031-0.015-0.064-0.028-0.097-0.039-0.043-0.013-0.087-0.024-0.132-0.032-0.057-0.009-0.115-0.013-0.173-0.013-0.111-0.001-0.22 0.017-0.323 0.053-0.096 0.034-0.182 0.084-0.253 0.149-0.073 0.069-0.128 0.15-0.164 0.238-0.041 0.101-0.061 0.207-0.060 0.313-0.002 0.108 0.018 0.216 0.060 0.319 0.035 0.087 0.090 0.168 0.161 0.236 0.067 0.064 0.149 0.114 0.241 0.147 0.095 0.034 0.197 0.051 0.3 0.050 0.059 0.001 0.119-0.003 0.177-0.010 0.096-0.010 0.188-0.039 0.269-0.085 0.041-0.023 0.079-0.049 0.115-0.078 0.015-0.012 0.035-0.020 0.055-0.020zM22.779 25.63c0.002 0.134-0.025 0.267-0.079 0.393-0.047 0.114-0.122 0.218-0.219 0.305s-0.214 0.155-0.344 0.2c-0.285 0.094-0.599 0.094-0.884 0-0.129-0.046-0.245-0.114-0.342-0.201-0.097-0.089-0.172-0.194-0.221-0.308-0.105-0.255-0.105-0.533 0-0.787 0.050-0.115 0.125-0.22 0.221-0.31 0.097-0.084 0.214-0.15 0.342-0.193 0.284-0.096 0.6-0.096 0.884 0 0.129 0.046 0.246 0.114 0.343 0.201 0.096 0.088 0.17 0.191 0.22 0.305 0.054 0.127 0.081 0.261 0.079 0.396zM22.474 25.63c0.002-0.107-0.016-0.214-0.055-0.316-0.033-0.087-0.086-0.168-0.156-0.236-0.068-0.065-0.152-0.116-0.246-0.149-0.207-0.069-0.436-0.069-0.643 0-0.094 0.033-0.178 0.084-0.246 0.149-0.071 0.068-0.125 0.149-0.157 0.236-0.074 0.206-0.074 0.426 0 0.632 0.033 0.087 0.086 0.168 0.157 0.236 0.068 0.065 0.152 0.115 0.246 0.148 0.207 0.067 0.436 0.067 0.643 0 0.093-0.033 0.177-0.083 0.246-0.148 0.070-0.069 0.123-0.149 0.156-0.236 0.039-0.102 0.058-0.209 0.055-0.316zM25.071 25.961l0.030 0.071c0.012-0.025 0.022-0.048 0.033-0.071 0.011-0.024 0.024-0.047 0.038-0.070l0.743-1.174c0.015-0.020 0.028-0.033 0.042-0.037 0.020-0.005 0.040-0.007 0.061-0.006h0.22v1.909h-0.26v-1.463c-0.001-0.022-0.001-0.044 0-0.066l-0.748 1.19c-0.009 0.018-0.025 0.033-0.044 0.043s-0.041 0.016-0.064 0.016h-0.042c-0.023 0-0.045-0.005-0.064-0.016s-0.034-0.026-0.044-0.044l-0.769-1.198v1.533h-0.252v-1.905h0.22c0.021-0.001 0.041 0.001 0.061 0.006 0.018 0.008 0.032 0.021 0.041 0.037l0.759 1.175c0.015 0.022 0.028 0.045 0.038 0.068zM27.868 25.866v0.715h-0.291v-1.907h0.649c0.122-0.002 0.245 0.012 0.362 0.042 0.094 0.023 0.181 0.064 0.256 0.119 0.065 0.052 0.114 0.116 0.145 0.187 0.034 0.078 0.051 0.161 0.049 0.244 0.001 0.084-0.017 0.167-0.054 0.244-0.035 0.073-0.089 0.138-0.157 0.191-0.075 0.057-0.162 0.1-0.257 0.126-0.113 0.031-0.232 0.046-0.351 0.044l-0.352-0.005zM27.868 25.662h0.352c0.076 0.001 0.153-0.009 0.225-0.029 0.060-0.018 0.115-0.046 0.163-0.082 0.044-0.035 0.078-0.078 0.099-0.126 0.024-0.051 0.036-0.105 0.035-0.16 0.003-0.053-0.007-0.106-0.029-0.155s-0.057-0.094-0.102-0.13c-0.111-0.075-0.251-0.112-0.391-0.102h-0.352v0.786zM31.777 26.584h-0.23c-0.023 0.001-0.046-0.006-0.064-0.018-0.017-0.012-0.029-0.027-0.038-0.044l-0.198-0.461h-0.993l-0.205 0.461c-0.008 0.017-0.020 0.032-0.036 0.043-0.018 0.013-0.042 0.020-0.065 0.019h-0.23l0.873-1.909h0.302l0.884 1.909zM30.337 25.875h0.82l-0.346-0.777c-0.026-0.058-0.048-0.118-0.065-0.179l-0.034 0.1c-0.010 0.030-0.022 0.058-0.032 0.081l-0.343 0.776zM33.033 24.684c0.017 0.008 0.032 0.020 0.044 0.034l1.273 1.439v-1.482h0.26v1.909h-0.145c-0.021 0.001-0.041-0.003-0.060-0.011-0.018-0.009-0.034-0.021-0.047-0.035l-1.271-1.438c0.001 0.022 0.001 0.044 0 0.066v1.419h-0.26v-1.909h0.154c0.018-0 0.036 0.003 0.052 0.009zM36.754 25.825v0.758h-0.291v-0.758l-0.804-1.15h0.26c0.022-0.001 0.045 0.005 0.063 0.016 0.016 0.012 0.029 0.027 0.039 0.043l0.503 0.742c0.020 0.032 0.038 0.061 0.052 0.088s0.026 0.054 0.036 0.081l0.038-0.082c0.014-0.030 0.031-0.059 0.049-0.087l0.496-0.747c0.010-0.015 0.023-0.028 0.038-0.040 0.017-0.013 0.040-0.020 0.063-0.019h0.263l-0.806 1.155zM24.927 21.471c0.127 0.014 0.255 0.025 0.384 0.035 1.962-0.763 3.622-2.011 4.773-3.589s1.74-3.415 1.695-5.283l-2.163-1.879c0.44 1.988 0.234 4.043-0.594 5.936s-2.246 3.547-4.095 4.779z"></path>
<path d="M24.155 21.383l0.058 0.010c1.976-1.228 3.482-2.942 4.324-4.922s0.981-4.133 0.4-6.182l-3.080-2.676c1.246 2.2 1.747 4.662 1.446 7.099s-1.393 4.751-3.148 6.671zM34.601 14.841c-0.523 2.052-1.794 3.902-3.624 5.277-0.534 0.404-1.111 0.763-1.722 1.074 1.49-0.381 2.86-1.053 4.003-1.966s2.030-2.042 2.592-3.3l-1.249-1.084z"></path>
<path d="M34.111 14.539l-1.779-1.545c-0.034 1.762-0.611 3.484-1.67 4.987s-2.562 2.732-4.353 3.559h0.009c0.399-0 0.798-0.021 1.194-0.062 1.674-0.593 3.152-1.538 4.303-2.748s1.94-2.65 2.295-4.19zM24.412 6.484l-2.122-1.846c-1.897 0.637-3.528 1.756-4.681 3.212s-1.772 3.18-1.778 4.947c0.007 1.952 0.763 3.847 2.149 5.384s3.322 2.628 5.502 3.101c1.946-2.060 3.086-4.606 3.253-7.267s-0.647-5.299-2.323-7.531zM39.014 14.254c-0.008-2.316-1.070-4.536-2.955-6.174s-4.44-2.561-7.106-2.568c-1.232-0.001-2.453 0.196-3.602 0.582l12.992 11.288c0.445-0.998 0.673-2.059 0.672-3.129z"></path>
</symbol>
<symbol id="Logo-3" viewBox="0 0 57 32">
<path fill="#fff" style="fill: var(--color5, #fff)" d="M0 0h56.533v32h-56.533v-32z"></path>
<path d="M12.878 11.255h-0.002c-1.279 0-2.316 0.921-2.316 2.058v0.001c0 1.137 1.037 2.058 2.316 2.058h0.002c1.279 0 2.316-0.921 2.316-2.058v-0.001c0-1.137-1.037-2.058-2.316-2.058z"></path>
<path d="M29.971 10.597c-0.004-1.579-0.711-3.092-1.967-4.208s-2.958-1.745-4.735-1.749v0c-1.777 0.003-3.48 0.631-4.737 1.748s-1.964 2.63-1.968 4.209v0 8.706c0 0 13.405-1.327 13.406-8.704v-0.001z"></path>
<path d="M5.867 22.16c0.003 1.098 0.496 2.151 1.369 2.928s2.058 1.215 3.294 1.218v0c1.236-0.003 2.42-0.441 3.294-1.218s1.366-1.829 1.37-2.927v0-6.057c0 0-9.327 0.924-9.327 6.056zM10.53 23.245c-0.242 0-0.478-0.064-0.678-0.183s-0.357-0.289-0.45-0.487c-0.092-0.198-0.117-0.417-0.069-0.627s0.163-0.404 0.334-0.556c0.171-0.152 0.388-0.255 0.625-0.297s0.482-0.020 0.706 0.062c0.223 0.082 0.414 0.221 0.548 0.4s0.206 0.388 0.206 0.603c0.001 0.143-0.031 0.284-0.092 0.417s-0.151 0.252-0.264 0.353c-0.114 0.101-0.248 0.182-0.397 0.236s-0.308 0.083-0.468 0.083v-0.004z"></path>
<path d="M19.056 21.302v2.275h-0.469v-2.275h0.469zM19.962 22.274v0.366h-1.034v-0.366h1.034zM20.072 21.302v0.367h-1.144v-0.367h1.144zM22.212 22.386v0.108c0 0.173-0.023 0.328-0.070 0.466s-0.113 0.255-0.198 0.352c-0.085 0.096-0.187 0.169-0.306 0.22-0.118 0.051-0.248 0.077-0.392 0.077s-0.273-0.026-0.392-0.077c-0.118-0.051-0.22-0.124-0.306-0.22-0.086-0.097-0.154-0.214-0.202-0.352s-0.070-0.293-0.070-0.466v-0.108c0-0.174 0.023-0.329 0.070-0.466 0.047-0.137 0.113-0.255 0.198-0.352 0.086-0.097 0.189-0.171 0.306-0.222 0.119-0.051 0.25-0.077 0.392-0.077 0.144 0 0.274 0.026 0.392 0.077 0.119 0.051 0.221 0.125 0.306 0.222 0.086 0.097 0.153 0.214 0.2 0.352 0.048 0.136 0.072 0.292 0.072 0.466zM21.739 22.494v-0.111c0-0.121-0.011-0.227-0.033-0.319s-0.054-0.169-0.097-0.231-0.095-0.109-0.156-0.141c-0.061-0.032-0.132-0.048-0.211-0.048s-0.149 0.016-0.211 0.048c-0.060 0.031-0.112 0.078-0.155 0.141-0.042 0.063-0.073 0.14-0.095 0.231s-0.033 0.198-0.033 0.319v0.111c0 0.12 0.011 0.226 0.033 0.319 0.022 0.092 0.054 0.169 0.097 0.233 0.043 0.063 0.095 0.11 0.156 0.142s0.132 0.048 0.211 0.048c0.079 0 0.149-0.016 0.211-0.048s0.113-0.080 0.155-0.142c0.042-0.064 0.073-0.141 0.095-0.233s0.033-0.199 0.033-0.319zM23.734 22.982c0-0.041-0.006-0.077-0.019-0.109-0.011-0.033-0.033-0.064-0.066-0.091-0.032-0.028-0.078-0.056-0.136-0.083s-0.134-0.055-0.227-0.084c-0.103-0.033-0.201-0.071-0.294-0.112-0.092-0.042-0.173-0.090-0.244-0.145-0.070-0.056-0.125-0.121-0.166-0.195-0.040-0.074-0.059-0.16-0.059-0.258 0-0.095 0.021-0.181 0.063-0.258 0.042-0.078 0.1-0.145 0.175-0.2 0.075-0.056 0.164-0.099 0.266-0.13 0.103-0.030 0.216-0.045 0.339-0.045 0.168 0 0.314 0.030 0.439 0.091s0.222 0.143 0.291 0.248c0.070 0.105 0.105 0.226 0.105 0.361h-0.466c0-0.067-0.014-0.125-0.042-0.175-0.027-0.051-0.069-0.091-0.125-0.12-0.055-0.029-0.125-0.044-0.209-0.044-0.081 0-0.149 0.013-0.203 0.038-0.054 0.024-0.095 0.057-0.122 0.098-0.027 0.041-0.041 0.086-0.041 0.137 0 0.039 0.009 0.073 0.028 0.105 0.020 0.031 0.049 0.060 0.088 0.088s0.086 0.053 0.142 0.077c0.056 0.024 0.121 0.047 0.195 0.070 0.124 0.038 0.233 0.080 0.327 0.127 0.095 0.047 0.174 0.099 0.238 0.158s0.111 0.124 0.144 0.198c0.032 0.074 0.048 0.158 0.048 0.252 0 0.099-0.019 0.188-0.058 0.266s-0.094 0.144-0.167 0.198c-0.073 0.054-0.16 0.095-0.261 0.123s-0.214 0.042-0.339 0.042c-0.113 0-0.223-0.015-0.333-0.044-0.109-0.030-0.209-0.076-0.298-0.136-0.089-0.060-0.159-0.137-0.213-0.231s-0.080-0.205-0.080-0.333h0.47c0 0.071 0.011 0.131 0.033 0.18s0.053 0.089 0.092 0.119c0.041 0.030 0.089 0.052 0.144 0.066 0.056 0.014 0.118 0.020 0.184 0.020 0.081 0 0.148-0.011 0.2-0.034 0.053-0.023 0.092-0.055 0.117-0.095s0.039-0.086 0.039-0.137zM25.539 21.302v2.275h-0.467v-2.275h0.467zM26.239 21.302v0.367h-1.856v-0.367h1.856zM28.033 23.211v0.366h-1.211v-0.366h1.211zM26.975 21.302v2.275h-0.469v-2.275h0.469zM27.875 22.229v0.356h-1.053v-0.356h1.053zM28.031 21.302v0.367h-1.209v-0.367h1.209zM28.306 21.302h0.848c0.174 0 0.323 0.026 0.448 0.078 0.126 0.052 0.223 0.129 0.291 0.231s0.102 0.228 0.102 0.377c0 0.122-0.021 0.227-0.063 0.314-0.041 0.086-0.098 0.159-0.173 0.217-0.074 0.057-0.161 0.103-0.261 0.137l-0.148 0.078h-0.738l-0.003-0.366h0.548c0.082 0 0.151-0.015 0.205-0.044s0.095-0.070 0.122-0.122c0.028-0.052 0.042-0.112 0.042-0.181 0-0.073-0.014-0.136-0.041-0.189s-0.068-0.094-0.123-0.122c-0.055-0.028-0.124-0.042-0.208-0.042h-0.38v1.908h-0.469v-2.275zM29.578 23.577l-0.519-1.014 0.495-0.003 0.525 0.995v0.022h-0.502zM32.039 22.766h-0.58v-0.366h0.58c0.090 0 0.163-0.015 0.219-0.044 0.056-0.030 0.097-0.072 0.123-0.125s0.039-0.113 0.039-0.18c0-0.068-0.013-0.131-0.039-0.189s-0.067-0.105-0.123-0.141-0.129-0.053-0.219-0.053h-0.417v1.908h-0.469v-2.275h0.886c0.178 0 0.331 0.032 0.458 0.097 0.128 0.064 0.226 0.152 0.294 0.264s0.102 0.241 0.102 0.386c0 0.147-0.034 0.274-0.102 0.381s-0.166 0.19-0.294 0.248c-0.127 0.058-0.28 0.088-0.458 0.088zM34.742 23.211v0.366h-1.211v-0.366h1.211zM33.684 21.302v2.275h-0.469v-2.275h0.469zM34.584 22.229v0.356h-1.053v-0.356h1.053zM34.74 21.302v0.367h-1.209v-0.367h1.209zM36.064 21.302v2.275h-0.467v-2.275h0.467zM36.764 21.302v0.367h-1.856v-0.367h1.856zM38.558 23.211v0.366h-1.211v-0.366h1.211zM37.5 21.302v2.275h-0.469v-2.275h0.469zM38.4 22.229v0.356h-1.053v-0.356h1.053zM38.556 21.302v0.367h-1.209v-0.367h1.209zM38.831 21.302h0.848c0.174 0 0.323 0.026 0.448 0.078 0.126 0.052 0.223 0.129 0.291 0.231s0.102 0.228 0.102 0.377c0 0.122-0.021 0.227-0.063 0.314-0.041 0.086-0.098 0.159-0.173 0.217-0.074 0.057-0.161 0.103-0.261 0.137l-0.148 0.078h-0.737l-0.003-0.366h0.548c0.082 0 0.151-0.015 0.205-0.044s0.095-0.070 0.122-0.122c0.028-0.052 0.042-0.112 0.042-0.181 0-0.073-0.014-0.136-0.041-0.189s-0.068-0.094-0.123-0.122c-0.055-0.028-0.124-0.042-0.208-0.042h-0.38v1.908h-0.469v-2.275zM40.103 23.577l-0.519-1.014 0.495-0.003 0.525 0.995v0.022h-0.502zM42.065 22.982c0-0.041-0.006-0.077-0.019-0.109-0.011-0.033-0.033-0.064-0.066-0.091-0.032-0.028-0.078-0.056-0.136-0.083s-0.134-0.055-0.227-0.084c-0.103-0.033-0.201-0.071-0.294-0.112-0.092-0.042-0.173-0.090-0.244-0.145-0.070-0.056-0.125-0.121-0.166-0.195-0.040-0.074-0.059-0.16-0.059-0.258 0-0.095 0.021-0.181 0.063-0.258 0.042-0.078 0.1-0.145 0.175-0.2 0.075-0.056 0.164-0.099 0.266-0.13 0.103-0.030 0.216-0.045 0.339-0.045 0.168 0 0.314 0.030 0.439 0.091s0.222 0.143 0.291 0.248c0.070 0.105 0.105 0.226 0.105 0.361h-0.466c0-0.067-0.014-0.125-0.042-0.175-0.027-0.051-0.069-0.091-0.125-0.12-0.055-0.029-0.125-0.044-0.209-0.044-0.081 0-0.149 0.013-0.203 0.038-0.054 0.024-0.095 0.057-0.122 0.098-0.027 0.041-0.041 0.086-0.041 0.137 0 0.039 0.009 0.073 0.028 0.105 0.020 0.031 0.049 0.060 0.088 0.088s0.086 0.053 0.142 0.077c0.056 0.024 0.121 0.047 0.195 0.070 0.124 0.038 0.233 0.080 0.327 0.127 0.095 0.047 0.174 0.099 0.237 0.158s0.111 0.124 0.144 0.198c0.032 0.074 0.048 0.158 0.048 0.252 0 0.099-0.019 0.188-0.058 0.266s-0.094 0.144-0.167 0.198c-0.073 0.054-0.16 0.095-0.261 0.123s-0.214 0.042-0.339 0.042c-0.113 0-0.223-0.015-0.333-0.044-0.109-0.030-0.209-0.076-0.298-0.136-0.089-0.060-0.159-0.137-0.213-0.231s-0.080-0.205-0.080-0.333h0.47c0 0.071 0.011 0.131 0.033 0.18s0.053 0.089 0.092 0.119c0.041 0.030 0.089 0.052 0.144 0.066 0.056 0.014 0.118 0.020 0.184 0.020 0.081 0 0.148-0.011 0.2-0.034 0.053-0.023 0.092-0.055 0.117-0.095 0.026-0.041 0.039-0.086 0.039-0.137z"></path>
</symbol>
<symbol id="Logo-4" viewBox="0 0 57 32">
<path  d="M14.272 23.86c0.13 0.147 0.199 0.332 0.196 0.521 0.007 0.123-0.017 0.247-0.070 0.361s-0.132 0.216-0.233 0.298c-0.253 0.175-0.565 0.26-0.881 0.24h-1.549v-3.303h1.517c0.3-0.018 0.597 0.059 0.841 0.219 0.098 0.075 0.176 0.17 0.227 0.277s0.074 0.224 0.068 0.341c0.009 0.182-0.054 0.361-0.176 0.505-0.118 0.131-0.28 0.222-0.462 0.258 0.205 0.034 0.391 0.134 0.523 0.282zM12.456 23.361h0.648c0.147 0.010 0.294-0.029 0.412-0.11 0.049-0.040 0.087-0.091 0.111-0.146s0.034-0.116 0.028-0.176c0.005-0.060-0.005-0.12-0.029-0.175s-0.061-0.106-0.108-0.147c-0.122-0.083-0.273-0.123-0.425-0.111h-0.638v0.866zM13.58 24.628c0.052-0.041 0.093-0.093 0.12-0.151s0.038-0.121 0.034-0.184c0.004-0.064-0.008-0.127-0.035-0.186s-0.069-0.111-0.121-0.153c-0.127-0.086-0.283-0.128-0.441-0.119h-0.68v0.908h0.689c0.155 0.008 0.309-0.032 0.435-0.115zM17.374 25.28l-0.844-1.291h-0.317v1.291h-0.726v-3.303h1.374c0.346-0.022 0.689 0.078 0.957 0.281 0.192 0.179 0.308 0.415 0.327 0.666s-0.061 0.499-0.224 0.701c-0.17 0.178-0.401 0.296-0.655 0.336l0.899 1.32h-0.789zM16.213 23.539h0.594c0.412 0 0.619-0.167 0.619-0.5 0.004-0.068-0.007-0.136-0.033-0.2s-0.066-0.122-0.118-0.171c-0.13-0.099-0.298-0.147-0.467-0.134h-0.601l0.007 1.005zM21.342 24.615h-1.447l-0.256 0.665h-0.761l1.329-3.265h0.823l1.323 3.265h-0.761l-0.25-0.665zM21.148 24.115l-0.529-1.394-0.529 1.394h1.057zM26.309 25.28h-0.721l-1.616-2.246v2.246h-0.719v-3.303h0.719l1.616 2.259v-2.259h0.721v3.303zM30.422 24.489c-0.149 0.249-0.376 0.452-0.652 0.582-0.314 0.145-0.662 0.217-1.013 0.208h-1.283v-3.303h1.283c0.351-0.008 0.698 0.061 1.013 0.203 0.276 0.127 0.503 0.328 0.652 0.576 0.148 0.269 0.226 0.565 0.226 0.866s-0.077 0.598-0.226 0.866zM29.597 24.41c0.206-0.219 0.319-0.499 0.319-0.788s-0.113-0.569-0.319-0.788c-0.249-0.199-0.573-0.3-0.902-0.281h-0.5v2.138h0.5c0.329 0.019 0.654-0.082 0.902-0.281zM21.793 3.607s9.302 3.216 9.105 7.868v7.87s-9.295-3.217-9.101-7.87l-0.004-7.869zM39.185 17.503c1.757-1.107 3.789-1.793 5.91-1.994v-2.464c-2.444 0.863-4.517 2.426-5.91 4.458z"></path>
<path  d="M38.129 18.245c1.438-2.651 3.931-4.697 6.965-5.716v-7.099s-13.247 4.58-12.967 11.207v11.205s0.59-0.205 1.519-0.589c0-0.358 0-0.72 0.042-1.083 0.274-3.076 1.871-5.927 4.44-7.925z"></path>
<path  d="M36.869 22.408c0.070-0.777 0.225-1.546 0.463-2.294-1.6 1.726-2.568 3.867-2.77 6.123-0.019 0.213-0.030 0.426-0.035 0.645 0.752-0.331 1.628-0.744 2.548-1.229-0.235-1.067-0.304-2.16-0.206-3.245zM37.396 22.448c-0.088 0.982-0.033 1.97 0.164 2.938 3.619-1.983 7.686-5.047 7.529-8.749v-0.323c-2.586 0.265-5.005 1.3-6.886 2.946-0.44 1.020-0.712 2.095-0.807 3.188z"></path>
</symbol>
<symbol id="Logo-5" viewBox="0 0 57 32">
<path  d="M28.498 14.617c-0.236-0.315-0.349-0.686-0.323-1.061v-1.538c0-0.471 0.107-0.83 0.321-1.075s0.581-0.367 1.102-0.366c0.489 0 0.837 0.104 1.042 0.313 0.224 0.266 0.333 0.592 0.308 0.92v0.361h-0.875v-0.366c0.003-0.12-0.005-0.24-0.025-0.358-0.013-0.081-0.057-0.156-0.125-0.213-0.090-0.061-0.203-0.091-0.317-0.083-0.12-0.008-0.239 0.024-0.333 0.088-0.076 0.063-0.127 0.145-0.145 0.235-0.025 0.126-0.037 0.253-0.034 0.38v1.866c-0.014 0.18 0.025 0.36 0.112 0.524 0.044 0.055 0.104 0.099 0.175 0.127s0.149 0.038 0.226 0.029c0.112 0.008 0.223-0.022 0.31-0.085 0.071-0.061 0.117-0.141 0.13-0.227 0.020-0.124 0.030-0.249 0.027-0.374v-0.379h0.875v0.346c0.025 0.342-0.082 0.682-0.303 0.967-0.201 0.228-0.544 0.343-1.047 0.343s-0.884-0.122-1.1-0.376zM32.142 14.633c-0.221-0.239-0.332-0.588-0.332-1.050v-1.618c0-0.457 0.111-0.803 0.332-1.037s0.591-0.352 1.109-0.35c0.515 0 0.883 0.117 1.104 0.35 0.221 0.235 0.333 0.58 0.333 1.037v1.618c0 0.457-0.112 0.807-0.337 1.048s-0.591 0.361-1.1 0.361c-0.509 0-0.886-0.122-1.109-0.36zM33.658 14.245c0.079-0.15 0.115-0.314 0.105-0.479v-1.981c0.010-0.161-0.025-0.322-0.103-0.469-0.044-0.057-0.106-0.101-0.179-0.129s-0.152-0.037-0.231-0.027c-0.079-0.009-0.159 0-0.231 0.028s-0.135 0.072-0.18 0.129c-0.080 0.146-0.116 0.308-0.105 0.469v1.99c-0.011 0.165 0.025 0.329 0.105 0.479 0.051 0.050 0.114 0.091 0.185 0.119s0.147 0.042 0.225 0.042c0.078 0 0.154-0.014 0.225-0.042s0.134-0.068 0.185-0.119v-0.009zM35.74 10.625h0.942l0.709 2.985 0.725-2.985h0.917l0.092 4.308h-0.678l-0.072-2.994-0.699 2.994h-0.544l-0.725-3.005-0.067 3.005h-0.685l0.085-4.308zM40.182 10.625h1.468c0.846 0 1.268 0.408 1.268 1.223 0 0.781-0.445 1.171-1.336 1.17h-0.5v1.915h-0.906l0.005-4.308zM41.436 12.466c0.090 0.010 0.18 0.003 0.266-0.021s0.165-0.063 0.232-0.115c0.104-0.146 0.15-0.316 0.13-0.487 0.005-0.131-0.010-0.263-0.044-0.391-0.013-0.043-0.036-0.083-0.067-0.118s-0.070-0.065-0.115-0.087c-0.126-0.052-0.265-0.076-0.404-0.069h-0.352v1.287h0.352zM44.225 10.625h0.973l0.998 4.308h-0.844l-0.198-0.993h-0.868l-0.203 0.993h-0.857l0.998-4.308zM45.057 13.441l-0.339-1.808-0.339 1.808h0.678zM47.003 10.625h0.634l1.214 2.458v-2.458h0.752v4.308h-0.603l-1.221-2.566v2.566h-0.777l0.002-4.308zM51.365 13.291l-1.009-2.66h0.85l0.616 1.708 0.578-1.708h0.832l-0.997 2.66v1.643h-0.87v-1.643zM29.896 16.817v0.225h-0.739v1.751h-0.31v-1.751h-0.743v-0.225h1.792zM32.214 18.793h-0.239c-0.024 0.001-0.048-0.005-0.067-0.019-0.018-0.011-0.032-0.027-0.040-0.045l-0.214-0.469h-1.026l-0.214 0.469c-0.006 0.020-0.017 0.038-0.033 0.053-0.019 0.013-0.043 0.020-0.067 0.019h-0.239l0.906-1.976h0.315l0.917 1.968zM30.714 18.059h0.855l-0.362-0.804c-0.027-0.061-0.049-0.123-0.067-0.186-0.013 0.038-0.024 0.073-0.034 0.105l-0.033 0.083-0.359 0.803zM33.776 18.599c0.057 0.003 0.114 0.003 0.17 0 0.049-0.004 0.097-0.012 0.145-0.023 0.044-0.009 0.088-0.021 0.13-0.036 0.040-0.014 0.080-0.031 0.121-0.049v-0.444h-0.362c-0.009 0-0.018-0.001-0.026-0.003s-0.016-0.007-0.023-0.012c-0.006-0.004-0.011-0.010-0.014-0.016s-0.005-0.013-0.004-0.020v-0.152h0.703v0.757c-0.057 0.035-0.118 0.067-0.181 0.094-0.065 0.028-0.132 0.050-0.201 0.067-0.074 0.019-0.15 0.032-0.227 0.041-0.088 0.008-0.176 0.013-0.265 0.012-0.156 0.001-0.311-0.024-0.457-0.073-0.136-0.047-0.259-0.117-0.362-0.207-0.101-0.090-0.18-0.196-0.234-0.313-0.057-0.131-0.085-0.27-0.083-0.41-0.002-0.141 0.026-0.281 0.082-0.413 0.052-0.117 0.132-0.224 0.234-0.313 0.103-0.089 0.227-0.159 0.362-0.205 0.155-0.050 0.32-0.075 0.486-0.074 0.084-0 0.169 0.006 0.252 0.017 0.074 0.010 0.146 0.027 0.216 0.050 0.063 0.021 0.124 0.047 0.181 0.078 0.056 0.031 0.108 0.065 0.158 0.103l-0.087 0.122c-0.007 0.011-0.017 0.021-0.029 0.027s-0.027 0.010-0.041 0.010c-0.020-0.001-0.040-0.006-0.056-0.016-0.027-0.013-0.056-0.028-0.089-0.047-0.038-0.021-0.079-0.039-0.121-0.053-0.054-0.019-0.11-0.033-0.167-0.044-0.076-0.012-0.153-0.018-0.23-0.017-0.12-0.001-0.238 0.017-0.35 0.055-0.101 0.035-0.192 0.088-0.266 0.156-0.075 0.071-0.133 0.155-0.169 0.246-0.081 0.214-0.081 0.445 0 0.659 0.040 0.093 0.101 0.178 0.181 0.249 0.074 0.068 0.164 0.121 0.265 0.156 0.115 0.034 0.237 0.047 0.359 0.039zM36.665 18.568h0.989v0.225h-1.292v-1.976h0.31l-0.007 1.751zM38.683 18.793h-0.31v-1.976h0.31v1.976zM39.836 16.826c0.018 0.009 0.034 0.021 0.047 0.036l1.325 1.489c-0.002-0.023-0.002-0.047 0-0.070v-1.472h0.27v1.984h-0.156c-0.023 0.002-0.046-0.002-0.067-0.011-0.019-0.010-0.035-0.023-0.049-0.038l-1.323-1.488v1.536h-0.259v-1.976h0.161c0.017 0 0.035 0.003 0.051 0.009zM43.759 16.817v0.217h-1.098v0.652h0.89v0.21h-0.89v0.674h1.098v0.217h-1.417v-1.971h1.417zM11.288 4.615l13.759 3.373v11.819l-13.759-3.371v-11.821zM10.405 3.607v13.403l15.523 3.806v-13.401l-15.523-3.808z"></path>
<path  d="M18.725 27.037l-15.524-3.809v-13.401l15.524 3.808v13.403z"></path>
<path  d="M10.663 4.463l13.58 3.331-5.775 4.987-13.582-3.332 5.777-4.986zM10.405 3.607l-7.205 6.22 15.524 3.808 7.203-6.22-15.523-3.808zM19.598 26.284l6.33-5.466-6.33-1.553v7.019z"></path>
</symbol>
<symbol id="Logo" viewBox="0 0 57 32">
<path  d="M20.27 3.732l3.738 3.539-6.939-0.004v17.169h18.136v-6.565l3.734 3.535v-17.674h-18.669zM35.041 17.455l-10.599-10.034h10.599v10.034zM31.75 21.924h-11.811v-11.547h0.835v10.765h10.976v0.782zM22.728 26.721l-0.436 0.899-0.436-0.899h-0.366l0.637 1.198v0.698h0.331v-0.698l0.636-1.198h-0.365zM23.276 28.617l0.154-0.441h0.735l0.155 0.441h0.344l-0.718-1.896h-0.296l-0.716 1.896h0.343zM23.797 27.123l0.275 0.787h-0.55l0.275-0.787zM25.534 27.865c-0.048 0.073-0.072 0.153-0.072 0.241 0 0.16 0.056 0.29 0.168 0.389s0.263 0.148 0.451 0.148 0.349-0.051 0.484-0.152l0.107 0.126h0.367l-0.279-0.329c0.109-0.149 0.164-0.341 0.164-0.574h-0.275c0 0.128-0.026 0.244-0.079 0.348l-0.366-0.432 0.129-0.094c0.091-0.066 0.157-0.132 0.197-0.198s0.060-0.14 0.060-0.219c0-0.12-0.044-0.22-0.133-0.301s-0.201-0.122-0.339-0.122c-0.153 0-0.274 0.043-0.365 0.13s-0.135 0.203-0.135 0.352c0 0.061 0.014 0.124 0.043 0.189s0.081 0.144 0.155 0.237c-0.141 0.101-0.235 0.188-0.283 0.262zM26.39 28.284c-0.093 0.071-0.193 0.107-0.299 0.107-0.095 0-0.17-0.027-0.227-0.082s-0.085-0.126-0.085-0.214c0-0.102 0.052-0.192 0.156-0.271l0.040-0.029 0.414 0.488zM26.050 27.444c-0.089-0.11-0.134-0.202-0.134-0.275 0-0.063 0.018-0.116 0.055-0.158s0.085-0.063 0.147-0.063c0.057 0 0.105 0.018 0.142 0.053s0.056 0.077 0.056 0.126c0 0.075-0.027 0.136-0.081 0.184l-0.040 0.033-0.145 0.099zM29.137 28.474c0.13-0.114 0.205-0.272 0.224-0.474h-0.328c-0.017 0.135-0.059 0.232-0.124 0.29s-0.162 0.087-0.292 0.087c-0.142 0-0.249-0.054-0.323-0.161s-0.109-0.264-0.109-0.469v-0.168c0.002-0.202 0.041-0.356 0.117-0.46s0.188-0.158 0.331-0.158c0.123 0 0.217 0.030 0.28 0.091s0.104 0.158 0.12 0.294h0.328c-0.021-0.207-0.095-0.368-0.223-0.482s-0.296-0.171-0.505-0.171c-0.155 0-0.293 0.037-0.412 0.111s-0.209 0.179-0.272 0.315c-0.063 0.136-0.095 0.294-0.095 0.473v0.177c0.003 0.174 0.035 0.328 0.098 0.46s0.151 0.234 0.266 0.306c0.115 0.071 0.249 0.107 0.4 0.107 0.216 0 0.389-0.056 0.52-0.169zM31.073 28.208c0.064-0.141 0.096-0.304 0.096-0.49v-0.105c-0.001-0.185-0.034-0.347-0.099-0.486s-0.158-0.247-0.277-0.32c-0.119-0.075-0.256-0.112-0.41-0.112s-0.292 0.038-0.412 0.113c-0.119 0.075-0.211 0.183-0.277 0.324s-0.098 0.305-0.098 0.49v0.107c0.001 0.181 0.034 0.342 0.099 0.48s0.159 0.246 0.279 0.322c0.121 0.075 0.258 0.112 0.412 0.112 0.155 0 0.293-0.037 0.411-0.112s0.212-0.183 0.276-0.323zM30.72 27.137c0.080 0.112 0.12 0.273 0.12 0.483v0.099c0 0.214-0.040 0.376-0.119 0.487s-0.19 0.167-0.336 0.167c-0.144 0-0.257-0.057-0.339-0.171s-0.121-0.275-0.121-0.483v-0.109c0.002-0.204 0.043-0.362 0.122-0.473s0.192-0.168 0.335-0.168c0.146 0 0.258 0.056 0.337 0.168z"></path>
</symbol>
<symbol id="smartphone" viewBox="0 0 20 32">
<path  d="M17.022 0h-14.014c-1.656 0-3.003 1.347-3.003 3.003v26.025c0 1.656 1.347 3.003 3.003 3.003h14.014c1.656 0 3.003-1.347 3.003-3.003v-26.025c0-1.656-1.347-3.003-3.003-3.003zM3.009 2.002h14.014c0.552 0 1.001 0.449 1.001 1.001v21.021h-16.016v-21.021c0-0.552 0.449-1.001 1.001-1.001zM17.022 30.029h-14.014c-0.552 0-1.001-0.449-1.001-1.001v-3.003h16.016v3.003c0 0.552-0.449 1.001-1.001 1.001z"></path>
<path  d="M4.718 27.505c0.391 0.365 0.391 0.957 0 1.322s-1.025 0.365-1.416 0c-0.391-0.365-0.391-0.957 0-1.322s1.025-0.365 1.416 0z"></path>
</symbol>
<symbol id="twitter" viewBox="0 0 32 32">
<path  d="M32.013 6.080c-1.19 0.522-2.459 0.868-3.781 1.036 1.361-0.812 2.399-2.089 2.887-3.627-1.268 0.756-2.669 1.29-4.162 1.589-1.204-1.282-2.921-2.077-4.794-2.077-3.633 0-6.558 2.949-6.558 6.565 0 0.52 0.044 1.020 0.152 1.497-5.456-0.266-10.284-2.881-13.527-6.865-0.566 0.982-0.898 2.107-0.898 3.317 0 2.273 1.17 4.288 2.915 5.454-1.054-0.020-2.089-0.326-2.965-0.808v0.072c0 3.189 2.275 5.838 5.258 6.448-0.534 0.146-1.116 0.216-1.721 0.216-0.42 0-0.844-0.024-1.242-0.112 0.85 2.599 3.263 4.51 6.132 4.572-2.233 1.747-5.068 2.799-8.137 2.799-0.538 0-1.054-0.024-1.571-0.090 2.907 1.875 6.352 2.945 10.068 2.945 12.077 0 18.679-10.004 18.679-18.675 0-0.29-0.010-0.57-0.024-0.848 1.303-0.924 2.397-2.079 3.289-3.407z"></path>
</symbol>

<symbol id="close" viewBox="0 0 30 30">
<path d="M21 10.108 19.892 9 15.5 13.392 11.108 9 10 10.108l4.392 4.392L10 18.892 11.108 20l4.392-4.392L19.892 20 21 18.892 16.608 14.5 21 10.108Z" />
</symbol>

<symbol id="iconsend" viewBox="0 0 24 24">
<path d="M24 0 0 13.5l7.67 2.84L19.5 5.25l-8.998 12.14.007.002-.009-.002V24l4.301-5.018L20.251 21 24 0Z" fill="#fff"/>
</symbol>

<symbol id="email-black" viewBox="0 0 18 18">
<path d="M15 3H3c-.825 0-1.492.675-1.492 1.5l-.008 9c0 .825.675 1.5 1.5 1.5h12c.825 0 1.5-.675 1.5-1.5v-9c0-.825-.675-1.5-1.5-1.5Zm-.3 3.188L9.398 9.502a.759.759 0 0 1-.796 0L3.3 6.188a.637.637 0 1 1 .675-1.08L9 8.25l5.025-3.143a.637.637 0 1 1 .675 1.08Z"/>
</symbol>

<symbol id="person-black" viewBox="0 0 18 18">
<path d="M9 9a3 3 0 1 0 0-6 3 3 0 1 0 0 6Zm0 1.5c-2.003 0-6 1.005-6 3v.75c0 .412.337.75.75.75h10.5c.412 0 .75-.338.75-.75v-.75c0-1.995-3.998-3-6-3Z" />
</symbol>

<symbol id="phone-black" viewBox="0 0 18 18">
<path d="m13.996 11.123-1.838-.21a1.441 1.441 0 0 0-1.187.412l-1.332 1.332a10.888 10.888 0 0 1-4.769-4.77L6.21 6.55a1.44 1.44 0 0 0 .412-1.187l-.21-1.824a1.448 1.448 0 0 0-1.44-1.28H3.72c-.818 0-1.498.68-1.448 1.498.384 6.18 5.327 11.115 11.5 11.499.817.05 1.498-.63 1.498-1.448v-1.252a1.434 1.434 0 0 0-1.274-1.432Z" />
</symbol>

<symbol id="icon-check" viewBox="0 0 16 15">
<path d="m3.957 7.752-.069-.066-.069.065-.888.842-.076.072.076.073 3.496 3.334.069.066.069-.066 7.504-7.158.076-.073-.076-.072-.882-.841-.069-.066-.069.066-6.553 6.246-2.539-2.422Z"/>
</symbol>

</defs>
</svg>
